<svg xmlns="http://www.w3.org/2000/svg" viewBox="0 0 662.18 638.41"><defs><style>.cls-1{fill:#63c;fill-rule:evenodd;}</style></defs><g id="Camada_2" data-name="Camada 2"><g id="Layer_1" data-name="Layer 1"><path class="cls-1" d="M0,351.25V462.18H54.23V374.41c81.65-83.84,161.06-170.22,241.26-255.48h-71.6Z"/><polygon class="cls-1" points="607.94 54.24 607.94 407.95 305.21 407.95 348.95 462.19 662.18 462.19 662.18 0 0 0 0 298.26 54.23 241.99 54.23 54.24 607.94 54.24"/><polygon class="cls-1" points="175.6 302.53 133.16 347.58 229.79 462.19 304.31 462.19 175.6 302.53"/><path d="M14.07,533.57h13.1v51.65h.43l42.78-51.65H85.2L53,572.8l37.19,63.73H75.55L44.83,583,27.17,604v32.55H14.07Z"/><path d="M92.23,598.5c0-25.44,16.64-40.11,35.34-40.11s35.33,14.67,35.33,40.11c0,25.25-16.64,39.91-35.33,39.91S92.23,623.75,92.23,598.5Zm57.34,0c0-17.47-8.89-29.37-22-29.37s-22,11.9-22,29.37,8.89,29.17,22,29.17S149.57,616,149.57,598.5Z"/><path d="M177.59,621.21V524.77h12.9v97.39c0,3.94,1.72,5.51,3.6,5.51a11.24,11.24,0,0,0,2.82-.31l1.75,9.85a20.7,20.7,0,0,1-7.42,1.2C181.57,638.41,177.59,632.24,177.59,621.21Z"/><path d="M212.88,621.21V524.77h12.91v97.39c0,3.94,1.71,5.51,3.6,5.51a11.24,11.24,0,0,0,2.82-.31l1.75,9.85a20.72,20.72,0,0,1-7.43,1.2C216.86,638.41,212.88,632.24,212.88,621.21Z"/><path d="M242.51,598.5c0-24.82,16.73-40.11,34.28-40.11,19.45,0,30.43,14,30.43,35.78a41,41,0,0,1-.6,7.33H255.27c.92,16.16,10.8,26.63,25.34,26.63,7.31,0,13.32-2.36,19-6.09l4.62,8.46A44.76,44.76,0,0,1,279,638.41C258.7,638.41,242.51,623.55,242.51,598.5Zm53.31-6.24c0-15.28-6.87-23.59-18.8-23.59-10.72,0-20.3,8.61-21.87,23.59Z"/><path d="M321.28,560.27h10.66L333,574.16h.43c5.31-9.67,13.1-15.77,21.68-15.77a17.69,17.69,0,0,1,8.14,1.57l-2.41,11.32a21.2,21.2,0,0,0-7.4-1.25c-6.44,0-14.13,4.64-19.28,17.54v49H321.28Z"/><path d="M370.21,534.29h23.12v82.85h40.36v19.39H370.21Z"/><path d="M441.27,614.94c0-16.39,13-25.27,43.83-28.52-.47-6.81-3.86-11.25-12.31-11.25-6.53,0-13.05,2.75-20.6,7L444,567.06c9.87-6,21-10.24,33.24-10.24,19.9,0,30.92,11.37,30.92,35.22v44.49H489.34l-1.66-8h-.57c-6.55,5.76-13.9,9.85-22.64,9.85C450.27,638.41,441.27,628.06,441.27,614.94Zm43.83-1v-13.6c-16.4,2.22-21.75,6.9-21.75,12.79,0,5,3.45,7.47,8.93,7.47C477.5,620.58,481,618,485.1,613.92Z"/><path d="M543.34,628.23h-.57l-1.92,8.3h-18V526.63h23.06v26.85l-.57,12c5.91-5.3,13.25-8.62,20.59-8.62,18.85,0,30.51,15.57,30.51,39.44,0,26.83-15.89,42.15-32.74,42.15C556.7,638.41,549.53,634.91,543.34,628.23Zm29.43-31.58c0-14-4.32-21-13.52-21-4.74,0-8.88,2.12-13.38,7v32a18.49,18.49,0,0,0,12.42,4.92C566.33,619.54,572.77,612.76,572.77,596.65Z"/><path d="M600.33,627.54l10.38-14.36c7,5.33,13.56,8.17,20.08,8.17,6.86,0,9.83-2.61,9.83-6.69,0-5.13-7.72-7.45-15.73-10.59-9.54-3.69-20.59-10-20.59-22.89,0-14.49,11.78-24.36,29.74-24.36,11.92,0,20.8,4.82,27.42,9.85l-10.32,13.85c-5.53-4-11-6.64-16.39-6.64-6,0-8.89,2.33-8.89,6.21,0,5,7.29,6.87,15.36,9.8,9.85,3.64,21,9.19,21,23.42s-11.11,25.1-32,25.1C620,638.41,608.21,634,600.33,627.54Z"/></g></g></svg>